<?xml version="1.0" encoding="utf-8"?><svg xmlns="http://www.w3.org/2000/svg" xmlns:xlink="http://www.w3.org/1999/xlink"><symbol fill="none" viewBox="0 0 16 16" id="Combined_Shape_4" xmlns="http://www.w3.org/2000/svg"><path fill-rule="evenodd" clip-rule="evenodd" d="M8.178 5.17l.06.011a.306.306 0 01.154.055l1.412.998a.844.844 0 01.364.688V8.3a.292.292 0 01-.3.285.292.292 0 01-.298-.285V6.922a.281.281 0 00-.121-.23l-.718-.507V8.3a.56.56 0 01-.193.42l-1.605 1.407a.566.566 0 00-.177.29l-.576 2.32a.6.6 0 01-.72.424.57.57 0 01-.444-.687l.577-2.321c.082-.333.268-.635.531-.866l.816-.716V6.085c0-.191.1-.37.266-.475l.55-.351a.62.62 0 01.422-.09zm-.447 4.97l.87-.72c.042.027.082.06.118.097l.05.062 1.907 2.708a.555.555 0 01-.162.792.618.618 0 01-.788-.102l-.042-.053-1.908-2.708a.571.571 0 01-.045-.077l.87-.72-.87.72zM6.673 6.993v.756l-.695.578a.31.31 0 01-.383.007L5.556 8.3a.276.276 0 01-.008-.365l.038-.037 1.087-.903zm.177-4.17c.66 0 1.196.51 1.196 1.141S7.51 5.107 6.85 5.107c-.66 0-1.195-.511-1.195-1.142 0-.63.535-1.141 1.195-1.141z" fill="#000" opacity=".5"/></symbol><symbol fill="none" viewBox="0 0 32 32" id="Group_11" xmlns="http://www.w3.org/2000/svg"><circle cx="16" cy="16" r="16" fill="#F0C630"/><path fill="#000" d="M10 17v-2h12v2z"/></symbol><symbol fill="none" viewBox="0 0 32 32" id="Group_147" xmlns="http://www.w3.org/2000/svg"><circle cx="16" cy="16" r="16" fill="#EE4713"/><path fill-rule="evenodd" clip-rule="evenodd" d="M9.17 10.34c-.265-.262-.708-.017-.627.346l2.728 12.336c.038.17.19.293.364.293h9.268a.373.373 0 00.364-.293l2.728-12.336c.08-.363-.363-.608-.627-.346l-2.911 2.884a.267.267 0 01-.376 0l-3.55-3.516a.373.373 0 00-.525 0l-3.55 3.516a.267.267 0 01-.375 0l-2.91-2.884zm4.646 9.774a.213.213 0 00-.214.214v.64c0 .118.096.213.214.213h4.906a.213.213 0 00.214-.213v-.64a.213.213 0 00-.214-.213h-4.906z" fill="#fff"/></symbol><symbol fill="none" viewBox="0 0 32 32" id="Group_151" xmlns="http://www.w3.org/2000/svg"><circle cx="16" cy="16" r="16" fill="#774AA3"/><path fill-rule="evenodd" clip-rule="evenodd" d="M20.756 7.702a9.135 9.135 0 00-6.02 4.37l-1.86 3.223-2.769.742a.266.266 0 00-.187.184l-.484 1.692c-.043.15.05.304.203.335l1.37.28 5.542 3.2.928 1.047c.103.116.283.12.391.008l1.224-1.265a.267.267 0 00.066-.255l-.742-2.768 1.86-3.223a9.136 9.136 0 00.775-7.399.256.256 0 00-.297-.171zm-3.51 6.422a1.067 1.067 0 101.067-1.847 1.067 1.067 0 00-1.066 1.847z" fill="#fff"/><path d="M11.186 24.96a4.568 4.568 0 002.899-2.16l.38-.658a.266.266 0 00-.098-.364l-2.31-1.333a.267.267 0 00-.364.097l-.38.659a4.568 4.568 0 00-.42 3.59c.037.126.165.2.293.17z" fill="#fff"/></symbol><symbol fill="none" viewBox="0 0 32 32" id="Group_152" xmlns="http://www.w3.org/2000/svg"><circle cx="16" cy="16" r="16" fill="#FC822A"/><path stroke="#fff" stroke-width="2.1" stroke-linecap="round" d="M18.168 10.268l-4.625 12.208"/><path fill-rule="evenodd" clip-rule="evenodd" d="M10.402 16.761a3.42 3.42 0 100-6.84 3.42 3.42 0 000 6.84zm-.067-2.031a1.338 1.338 0 100-2.675 1.338 1.338 0 000 2.675zm11.262 7.585a3.42 3.42 0 100-6.84 3.42 3.42 0 000 6.84zm-.067-2.031a1.338 1.338 0 100-2.676 1.338 1.338 0 000 2.676z" fill="#fff"/></symbol><symbol fill="none" viewBox="0 0 16 16" id="Group_154" xmlns="http://www.w3.org/2000/svg"><path d="M8 10l4-5H4l4 5z" fill="#fff"/></symbol><symbol fill="none" viewBox="0 0 32 32" id="Group_155" xmlns="http://www.w3.org/2000/svg"><path d="M9.07 6.93l15.84 15.839-1.98 1.98L7.09 8.909l1.98-1.98z" fill="#fff"/><path d="M24.91 8.91L9.07 24.749l-1.98-1.98 15.84-15.84 1.98 1.98z" fill="#fff"/></symbol><symbol fill="none" viewBox="0 0 46 51" id="Group_197" xmlns="http://www.w3.org/2000/svg"><g filter="url(#hfilter0_d)"><path d="M4 7.088C4 3.173 7.19 0 11.125 0h23.75C38.81 0 42 3.173 42 7.088v23.627c0 3.915-3.19 7.088-7.125 7.088h-4.842a4.76 4.76 0 00-3.71 1.774l-2.396 2.98a1.191 1.191 0 01-1.854 0l-2.397-2.98a4.76 4.76 0 00-3.709-1.774h-4.842C7.19 37.803 4 34.63 4 30.715V7.088z" fill="#fff"/></g><path fill="#DB383E" d="M11 7h24v24H11z"/><path d="M23 20.79L25.21 15h2.83v8.453h-2.26v-5.187l-2.023 5.187h-1.516l-1.984-5.101v5.101H18V15h2.805L23 20.79z" fill="#fff"/><defs><filter id="hfilter0_d" x="0" y="0" width="46" height="51" filterUnits="userSpaceOnUse" color-interpolation-filters="sRGB"><feFlood flood-opacity="0" result="BackgroundImageFix"/><feColorMatrix in="SourceAlpha" values="0 0 0 0 0 0 0 0 0 0 0 0 0 0 0 0 0 0 127 0"/><feOffset dy="4"/><feGaussianBlur stdDeviation="2"/><feColorMatrix values="0 0 0 0 0 0 0 0 0 0 0 0 0 0 0 0 0 0 0.1 0"/><feBlend in2="BackgroundImageFix" result="effect1_dropShadow"/><feBlend in="SourceGraphic" in2="effect1_dropShadow" result="shape"/></filter></defs></symbol><symbol fill="none" viewBox="0 0 46 51" id="Group_221" xmlns="http://www.w3.org/2000/svg"><g filter="url(#ifilter0_d)"><path d="M4 7.088C4 3.173 7.19 0 11.125 0h23.75C38.81 0 42 3.173 42 7.088v23.627c0 3.915-3.19 7.088-7.125 7.088h-4.842a4.76 4.76 0 00-3.71 1.774l-2.396 2.98a1.191 1.191 0 01-1.854 0l-2.397-2.98a4.76 4.76 0 00-3.709-1.774h-4.842C7.19 37.803 4 34.63 4 30.715V7.088z" fill="#fff"/></g><path d="M30.898 15.06h-2.416v1.844l2.416 1.845v-3.69z" fill="#000"/><path d="M31.73 24.842c-.246-.204-.916-.8-2.08-1.838-1.768-1.576-5.423-4.834-6.082-5.277-.175-.076-.37-.06-.448-.015-1.027.581-7.52 6.321-8.185 7.006l-2.06-1.711c.44-.51 7.4-6.726 8.868-7.557.913-.517 2.138-.528 3.12-.029.518.263 1.944 1.479 6.633 5.658.957.853 1.784 1.59 2.004 1.772l-1.77 1.99z" fill="#F0C630"/><defs><filter id="ifilter0_d" x="0" y="0" width="46" height="51" filterUnits="userSpaceOnUse" color-interpolation-filters="sRGB"><feFlood flood-opacity="0" result="BackgroundImageFix"/><feColorMatrix in="SourceAlpha" values="0 0 0 0 0 0 0 0 0 0 0 0 0 0 0 0 0 0 127 0"/><feOffset dy="4"/><feGaussianBlur stdDeviation="2"/><feColorMatrix values="0 0 0 0 0 0 0 0 0 0 0 0 0 0 0 0 0 0 0.1 0"/><feBlend in2="BackgroundImageFix" result="effect1_dropShadow"/><feBlend in="SourceGraphic" in2="effect1_dropShadow" result="shape"/></filter></defs></symbol><symbol fill="none" viewBox="0 0 32 32" id="Group_23" xmlns="http://www.w3.org/2000/svg"><path fill-rule="evenodd" clip-rule="evenodd" d="M17 9h-3v6H8v3h6v6h3v-6h6v-3h-6V9z" fill="#000"/></symbol><symbol fill="none" viewBox="0 0 32 32" id="Group_24" xmlns="http://www.w3.org/2000/svg"><path d="M24 14v3H8v-3h16z" fill="#000"/></symbol><symbol fill="none" viewBox="0 0 24 24" id="Group_26" xmlns="http://www.w3.org/2000/svg"><path fill-rule="evenodd" clip-rule="evenodd" d="M12 6.586l7.707 7.707-1.414 1.414L12 9.414l-6.293 6.293-1.414-1.414L12 6.586z" fill="#000"/></symbol><symbol fill="none" viewBox="0 0 64 64" id="Group_4" xmlns="http://www.w3.org/2000/svg"><path d="M53.06 18.824h-6.44v4.92l6.44 4.92v-9.84z" fill="#fff"/><path d="M55.282 44.91c-.658-.542-2.445-2.133-5.547-4.898-4.717-4.203-14.464-12.891-16.22-14.073-.466-.204-.985-.16-1.194-.04-2.74 1.55-20.054 16.856-21.827 18.681L5 40.02c1.175-1.36 19.736-17.937 23.65-20.151 2.433-1.379 5.7-1.41 8.32-.078 1.38.7 5.182 3.943 17.686 15.087 2.553 2.275 4.758 4.24 5.344 4.725l-4.718 5.309z" fill="#F0C630"/></symbol><symbol fill="none" viewBox="0 0 32 32" id="Group_6" xmlns="http://www.w3.org/2000/svg"><circle cx="16" cy="16" r="16" fill="#F0C630"/><path d="M17 22h-2V10h2v12z" fill="#000"/><path d="M10 17v-2h12v2H10z" fill="#000"/></symbol><symbol fill="none" viewBox="0 0 16 10" id="Vector" xmlns="http://www.w3.org/2000/svg"><path d="M1 1l7 7 7-7" stroke="#000" stroke-width="2"/></symbol></svg>