<svg width="46" height="51" viewBox="0 0 46 51" fill="none" xmlns="http://www.w3.org/2000/svg">
<g filter="url(#filter0_d)">
<path d="M4 7.08806C4 3.17343 7.18997 0 11.125 0H34.875C38.81 0 42 3.17343 42 7.08806V30.7149C42 34.6296 38.81 37.803 34.875 37.803H30.033C28.59 37.803 27.2253 38.4555 26.3238 39.5765L23.9273 42.5566C23.4519 43.1478 22.5481 43.1478 22.0727 42.5566L19.6762 39.5765C18.7747 38.4555 17.41 37.803 15.967 37.803H11.125C7.18997 37.803 4 34.6296 4 30.7149V7.08806Z" fill="white"/>
</g>
<path d="M30.8976 15.0595H28.4824V16.9044L30.8976 18.7493V15.0595Z" fill="black"/>
<path d="M31.7308 24.8416C31.4839 24.6379 30.8137 24.0412 29.6506 23.0044C27.8819 21.4285 24.2266 18.1702 23.568 17.7273C23.3933 17.6507 23.1988 17.6673 23.1202 17.7118C22.0927 18.2933 15.6001 24.0331 14.9353 24.7176L12.875 23.007C13.3155 22.4973 20.2759 16.2809 21.7434 15.4503C22.6562 14.9334 23.8812 14.9218 24.8638 15.4212C25.3814 15.6837 26.8071 16.8999 31.4961 21.0789C32.4535 21.9322 33.2804 22.669 33.5 22.8507L31.7308 24.8416Z" fill="#F0C630"/>
<defs>
<filter id="filter0_d" x="0" y="0" width="46" height="51" filterUnits="userSpaceOnUse" color-interpolation-filters="sRGB">
<feFlood flood-opacity="0" result="BackgroundImageFix"/>
<feColorMatrix in="SourceAlpha" type="matrix" values="0 0 0 0 0 0 0 0 0 0 0 0 0 0 0 0 0 0 127 0"/>
<feOffset dy="4"/>
<feGaussianBlur stdDeviation="2"/>
<feColorMatrix type="matrix" values="0 0 0 0 0 0 0 0 0 0 0 0 0 0 0 0 0 0 0.1 0"/>
<feBlend mode="normal" in2="BackgroundImageFix" result="effect1_dropShadow"/>
<feBlend mode="normal" in="SourceGraphic" in2="effect1_dropShadow" result="shape"/>
</filter>
</defs>
</svg>
