<svg width="46" height="51" viewBox="0 0 46 51" fill="none" xmlns="http://www.w3.org/2000/svg">
<g filter="url(#filter0_d)">
<path d="M4 7.08806C4 3.17343 7.18997 0 11.125 0H34.875C38.81 0 42 3.17343 42 7.08806V30.7149C42 34.6296 38.81 37.803 34.875 37.803H30.033C28.59 37.803 27.2253 38.4555 26.3238 39.5765L23.9273 42.5566C23.4519 43.1478 22.5481 43.1478 22.0727 42.5566L19.6762 39.5765C18.7747 38.4555 17.41 37.803 15.967 37.803H11.125C7.18997 37.803 4 34.6296 4 30.7149V7.08806Z" fill="white"/>
</g>
<rect x="11" y="7" width="24" height="24" fill="#DB383E"/>
<path d="M23 20.7891L25.2109 15H28.0391V23.4531H25.7812V18.2656L23.7578 23.4531H22.2422L20.2578 18.3516V23.4531H18V15H20.8047L23 20.7891Z" fill="white"/>
<defs>
<filter id="filter0_d" x="0" y="0" width="46" height="51" filterUnits="userSpaceOnUse" color-interpolation-filters="sRGB">
<feFlood flood-opacity="0" result="BackgroundImageFix"/>
<feColorMatrix in="SourceAlpha" type="matrix" values="0 0 0 0 0 0 0 0 0 0 0 0 0 0 0 0 0 0 127 0"/>
<feOffset dy="4"/>
<feGaussianBlur stdDeviation="2"/>
<feColorMatrix type="matrix" values="0 0 0 0 0 0 0 0 0 0 0 0 0 0 0 0 0 0 0.1 0"/>
<feBlend mode="normal" in2="BackgroundImageFix" result="effect1_dropShadow"/>
<feBlend mode="normal" in="SourceGraphic" in2="effect1_dropShadow" result="shape"/>
</filter>
</defs>
</svg>
